FILE "Frog Feast (2005)(Oldergames - RasterSoft).img" BINARY
  TRACK 01 MODE1/2352
    INDEX 01 00:00:00
  TRACK 02 AUDIO
    PREGAP 00:02:00
    INDEX 01 00:05:17
  TRACK 03 AUDIO
    INDEX 00 00:50:21
    INDEX 01 00:52:21
  TRACK 04 AUDIO
    INDEX 00 03:08:53
    INDEX 01 03:10:53
